# xmcd
#
# Track frame offsets:
#	150
#	16882
#	32640
#	46970
#	63197
#	82162
#	96422
#	110140
#	129107
#	145182
#	168395
#	185127
#	200885
#	215217
#	231445
#	250407
#	264667
#	278385
#	297355
#
# Disc length: 4178 seconds
#
# Revision: 0
# Processed by: cddbd v1.5.2PL0 Copyright (c) Steve Scherf et al.
# Submitted via: audiograbber 1.83.01
#
DISCID=29105013
DTITLE=Various Artist - CHM0203
DYEAR=2002
DGENRE=Country
TTITLE0=Tim McGraw - The cowboy In Me vocal
TTITLE1=Phil Vassas - That's When I Love You vocal
TTITLE2=Emerson Drive - I Should Be Sleeping vocal 3
TTITLE3=Trisha Yearwood and Don Henley - Inside Out vocal
TTITLE4=Mark McGuinn - She Doesn't Dance vocal
TTITLE5=Blackhawk - Days Of America vocal
TTITLE6=Alan Jackson - It;s Alright To Be A Redneck vocal
TTITLE7=Mark Wills and Jamie O'Neal - I'm Not Gonna do Anything Without You vocal
TTITLE8=Charlie Daniels - This Ain't No Rag, It's a Flag vocal
TTITLE9=Alan Jackson - Where Were You When The World Stopped Turning
TTITLE10=Tim McGraw - The Cowboy In Me
TTITLE11=Phil Vassar - That's When I Love You
TTITLE12=Emerson Drive - I Should Be Sleeping
TTITLE13=Trisha Yearwood and Don Henley - Inside Out
TTITLE14=Mark McGuinn - She Doesn't Dance
TTITLE15=Blackhawk - Days Of America
TTITLE16=Alan Jackson - It's Alright To Be A Redneck
TTITLE17=Mark Wills and Jamie O'Neal - I'm Not Gonna do Anything Withou You
TTITLE18=Charlie Daniels - This Ain't No Rag, It's A Flag
EXTD=
EXTT0=
EXTT1=
EXTT2=
EXTT3=
EXTT4=
EXTT5=
EXTT6=
EXTT7=
EXTT8=
EXTT9=
EXTT10=
EXTT11=
EXTT12=
EXTT13=
EXTT14=
EXTT15=
EXTT16=
EXTT17=
EXTT18=
PLAYORDER=
